<svg width="300" height="300" viewBox="0 0 300 300" fill="none" xmlns="http://www.w3.org/2000/svg">
<g clip-path="url(#clip0_235_549)">
<path d="M150 1C180.858 1 205.588 2.65476 225.333 7.04297C245.067 11.4287 259.761 18.5309 270.615 29.3848C281.469 40.2386 288.571 54.9333 292.957 74.667C297.345 94.4122 299 119.142 299 150C299 180.858 297.345 205.588 292.957 225.333C288.571 245.067 281.469 259.761 270.615 270.615C259.761 281.469 245.067 288.571 225.333 292.957C205.588 297.345 180.858 299 150 299C119.142 299 94.4122 297.345 74.667 292.957C54.9333 288.571 40.2386 281.469 29.3848 270.615C18.5309 259.761 11.4287 245.067 7.04297 225.333C2.65476 205.588 1 180.858 1 150C1 119.142 2.65476 94.4122 7.04297 74.667C11.4287 54.9333 18.5309 40.2386 29.3848 29.3848C40.2386 18.5309 54.9333 11.4287 74.667 7.04297C94.4122 2.65476 119.142 1 150 1Z" fill="white" stroke="#EEEEEE" stroke-width="2"/>
<path d="M141.34 155C141.996 156.137 142.871 157.134 143.912 157.934C144.954 158.733 146.143 159.319 147.412 159.659C148.68 159.999 150.003 160.086 151.305 159.914C152.607 159.743 153.863 159.317 155 158.66C156.137 158.004 157.134 157.129 157.934 156.088C158.733 155.046 159.319 153.857 159.659 152.588C159.999 151.32 160.086 149.997 159.914 148.695C159.743 147.393 159.317 146.137 158.66 145L150 150L141.34 155Z" fill="#2E2E2E"/>
<path fill-rule="evenodd" clip-rule="evenodd" d="M150.172 80.001C150.294 80.0013 150.415 80.002 150.537 80.0029C150.716 80.0043 150.895 80.0061 151.073 80.0088C151.163 80.0102 151.252 80.012 151.342 80.0137C151.543 80.0174 151.743 80.0209 151.943 80.0264C152.051 80.0294 152.159 80.0336 152.267 80.0371C152.46 80.0433 152.654 80.0499 152.848 80.0576C152.868 80.0585 152.889 80.0597 152.909 80.0605C169.644 80.7448 184.864 87.3031 196.562 97.7305C196.607 97.7709 196.652 97.8119 196.697 97.8525C196.857 97.9954 197.016 98.1389 197.174 98.2832C197.258 98.3596 197.34 98.4369 197.424 98.5137C197.534 98.6156 197.645 98.7177 197.755 98.8203C197.855 98.914 197.955 99.0083 198.055 99.1025C198.151 99.1939 198.248 99.285 198.345 99.377C198.455 99.4825 198.565 99.589 198.675 99.6953C198.78 99.7967 198.884 99.898 198.988 100C199.089 100.098 199.188 100.197 199.288 100.296C199.358 100.365 199.428 100.434 199.497 100.503L199.704 100.71C199.806 100.812 199.906 100.916 200.007 101.019C200.045 101.058 200.084 101.097 200.123 101.137C200.469 101.492 200.811 101.851 201.149 102.213C201.21 102.277 201.27 102.342 201.33 102.406C201.45 102.535 201.568 102.665 201.687 102.795C201.759 102.874 201.831 102.954 201.903 103.033C202.011 103.152 202.119 103.272 202.226 103.392C202.325 103.503 202.424 103.614 202.522 103.726C202.595 103.808 202.666 103.89 202.738 103.973C213.487 116.278 220 132.378 220 150C220 188.66 188.66 220 150 220C111.568 220 80.3687 189.028 80.0029 150.682C80.0017 150.557 80.0015 150.432 80.001 150.307C80.0005 150.204 80 150.102 80 150C80 149.933 80.0008 149.866 80.001 149.799C80.0012 149.727 80.0015 149.654 80.002 149.582C80.1055 131.868 86.7876 115.713 97.7305 103.438C97.7709 103.392 97.8119 103.347 97.8525 103.302C97.9984 103.139 98.1447 102.977 98.292 102.815C98.3395 102.763 98.3879 102.712 98.4355 102.66C98.5802 102.503 98.7251 102.346 98.8711 102.189C98.9485 102.107 99.0267 102.025 99.1045 101.942C99.2134 101.827 99.3219 101.711 99.4316 101.597C99.5033 101.522 99.5755 101.448 99.6475 101.373C99.7847 101.231 99.9221 101.089 100.061 100.948C100.109 100.898 100.159 100.849 100.208 100.8C100.346 100.66 100.484 100.52 100.623 100.382C100.717 100.289 100.811 100.197 100.905 100.104C101.002 100.009 101.099 99.9124 101.196 99.8174C101.318 99.6994 101.439 99.5819 101.562 99.4648C101.639 99.3908 101.716 99.3169 101.794 99.2432C101.91 99.1331 102.027 99.0243 102.144 98.915C102.266 98.8005 102.388 98.6859 102.511 98.5723C102.551 98.5351 102.591 98.498 102.632 98.4609C114.367 87.6696 129.798 80.8353 146.81 80.0723C146.852 80.0703 146.894 80.0683 146.937 80.0664C147.151 80.0572 147.366 80.0493 147.581 80.042C147.669 80.0389 147.757 80.0359 147.846 80.0332C148.056 80.0268 148.267 80.0211 148.479 80.0166C148.58 80.0144 148.682 80.0125 148.784 80.0107C148.932 80.0082 149.08 80.0065 149.229 80.0049C149.404 80.003 149.579 80.0016 149.754 80.001C149.836 80.0007 149.918 80 150 80C150.057 80 150.115 80.0008 150.172 80.001ZM150 150L124.041 164.987C129.223 173.944 138.908 179.97 150 179.97C166.552 179.969 179.969 166.552 179.969 150C179.969 144.54 178.509 139.421 175.958 135.013L150 150Z" fill="#EF4343"/>
</g>
<defs>
<clipPath id="clip0_235_549">
<rect width="300" height="300" fill="white"/>
</clipPath>
</defs>
</svg>
