<svg width="194" height="136" viewBox="0 0 194 136" fill="none" xmlns="http://www.w3.org/2000/svg">
<path fill-rule="evenodd" clip-rule="evenodd" d="M0.606272 64.6191C-0.202091 66.8003 -0.202091 69.1996 0.606272 71.3809C8.47937 90.5017 21.8435 106.85 39.0044 118.355C56.1653 129.859 76.3502 136 97 136C117.65 136 137.835 129.859 154.996 118.355C172.157 106.85 185.521 90.5017 193.394 71.3809C194.202 69.1996 194.202 66.8003 193.394 64.6191C185.521 45.4983 172.157 29.1495 154.996 17.6454C137.835 6.14134 117.65 0 97 0C76.3502 0 56.1653 6.14134 39.0044 17.6454C21.8435 29.1495 8.47937 45.4983 0.606272 64.6191ZM135.073 68C135.073 89.061 118.027 106.134 97.0002 106.134C75.9732 106.134 58.9274 89.061 58.9274 68C58.9274 46.9391 75.9732 29.8658 97.0002 29.8658C118.027 29.8658 135.073 46.9391 135.073 68Z" fill="#198F51"/>
<circle cx="97" cy="68" r="25" fill="#198F51" fill-opacity="0.5"/>
</svg>
